<mxfile host="app.diagrams.net" agent="Mozilla/5.0 (Windows NT 10.0; Win64; x64) AppleWebKit/537.36 (KHTML, like Gecko) Chrome/130.0.0.0 Safari/537.36" version="24.8.4">
  <diagram name="PÃ¡gina-1" id="EMVcBe_j6mHVZaAjGRhh">
    <mxGraphModel dx="480" dy="872" grid="1" gridSize="10" guides="1" tooltips="1" connect="1" arrows="1" fold="1" page="1" pageScale="1" pageWidth="827" pageHeight="1169" math="0" shadow="0">
      <root>
        <mxCell id="0" />
        <mxCell id="1" parent="0" />
        <mxCell id="9mAFX8DV2YnmXoQF4fTw-1" value="Server&lt;div&gt;SMTP&lt;/div&gt;" style="rounded=1;whiteSpace=wrap;html=1;" vertex="1" parent="1">
          <mxGeometry x="270" y="80" width="120" height="60" as="geometry" />
        </mxCell>
        <mxCell id="9mAFX8DV2YnmXoQF4fTw-10" style="rounded=0;orthogonalLoop=1;jettySize=auto;html=1;entryX=0;entryY=0.5;entryDx=0;entryDy=0;dashed=1;strokeWidth=4;endArrow=none;endFill=0;" edge="1" parent="1" source="9mAFX8DV2YnmXoQF4fTw-2" target="9mAFX8DV2YnmXoQF4fTw-1">
          <mxGeometry relative="1" as="geometry" />
        </mxCell>
        <mxCell id="9mAFX8DV2YnmXoQF4fTw-2" value="Client&lt;br&gt;SMTP" style="rounded=1;whiteSpace=wrap;html=1;" vertex="1" parent="1">
          <mxGeometry x="70" y="210" width="120" height="60" as="geometry" />
        </mxCell>
        <mxCell id="9mAFX8DV2YnmXoQF4fTw-4" value="Client&lt;br&gt;SMTP" style="rounded=1;whiteSpace=wrap;html=1;" vertex="1" parent="1">
          <mxGeometry x="450" y="210" width="120" height="60" as="geometry" />
        </mxCell>
        <mxCell id="9mAFX8DV2YnmXoQF4fTw-6" style="edgeStyle=orthogonalEdgeStyle;rounded=0;orthogonalLoop=1;jettySize=auto;html=1;entryX=0.5;entryY=1;entryDx=0;entryDy=0;" edge="1" parent="1" source="9mAFX8DV2YnmXoQF4fTw-5" target="9mAFX8DV2YnmXoQF4fTw-2">
          <mxGeometry relative="1" as="geometry" />
        </mxCell>
        <mxCell id="9mAFX8DV2YnmXoQF4fTw-5" value="Image&lt;br&gt;Binary" style="rounded=1;whiteSpace=wrap;html=1;" vertex="1" parent="1">
          <mxGeometry x="70" y="340" width="120" height="60" as="geometry" />
        </mxCell>
        <mxCell id="9mAFX8DV2YnmXoQF4fTw-11" style="rounded=0;orthogonalLoop=1;jettySize=auto;html=1;entryX=1;entryY=0.5;entryDx=0;entryDy=0;dashed=1;strokeWidth=4;endArrow=none;endFill=0;exitX=0.5;exitY=0;exitDx=0;exitDy=0;" edge="1" parent="1" source="9mAFX8DV2YnmXoQF4fTw-4" target="9mAFX8DV2YnmXoQF4fTw-1">
          <mxGeometry relative="1" as="geometry">
            <mxPoint x="390" y="210" as="sourcePoint" />
            <mxPoint x="498" y="110" as="targetPoint" />
          </mxGeometry>
        </mxCell>
      </root>
    </mxGraphModel>
  </diagram>
</mxfile>
